<svg id="visual" viewBox="0 0 900 600" width="900" height="600" xmlns="http://www.w3.org/2000/svg" xmlns:xlink="http://www.w3.org/1999/xlink" version="1.1"><rect x="0" y="0" width="900" height="600" fill="#002233"></rect><path d="M664 600L673.5 588.8C683 577.7 702 555.3 699 533.2C696 511 671 489 676 466.8C681 444.7 716 422.3 737.7 400C759.3 377.7 767.7 355.3 773.8 333.2C780 311 784 289 767.7 266.8C751.3 244.7 714.7 222.3 685.5 200C656.3 177.7 634.7 155.3 640.8 133.2C647 111 681 89 679.3 66.8C677.7 44.7 640.3 22.3 621.7 11.2L603 0L900 0L900 11.2C900 22.3 900 44.7 900 66.8C900 89 900 111 900 133.2C900 155.3 900 177.7 900 200C900 222.3 900 244.7 900 266.8C900 289 900 311 900 333.2C900 355.3 900 377.7 900 400C900 422.3 900 444.7 900 466.8C900 489 900 511 900 533.2C900 555.3 900 577.7 900 588.8L900 600Z" fill="#715DF2" stroke-linecap="round" stroke-linejoin="miter"></path></svg>